<?xml version="1.0" encoding="UTF-8"?>
<!DOCTYPE svg PUBLIC "-//W3C//DTD SVG 1.1//EN" "http://www.w3.org/Graphics/SVG/1.1/DTD/svg11.dtd">
<!-- Creator: CorelDRAW (Evaluation Version) -->
<svg xmlns="http://www.w3.org/2000/svg" xml:space="preserve" width="103.4mm" height="55.152mm" version="1.1" style="shape-rendering:geometricPrecision; text-rendering:geometricPrecision; image-rendering:optimizeQuality; fill-rule:evenodd; clip-rule:evenodd"
viewBox="0 0 10340 5515.2"
 xmlns:xlink="http://www.w3.org/1999/xlink"
 xmlns:xodm="http://www.corel.com/coreldraw/odm/2003">
 <defs>
  <style type="text/css">
   <![CDATA[
    .fil0 {fill:#2B2A29}
    .fil1 {fill:#3755A0}
    .fil3 {fill:#2B2A29;fill-rule:nonzero}
    .fil2 {fill:#3755A0;fill-rule:nonzero}
   ]]>
  </style>
 </defs>
 <g id="Layer_x0020_1">
  <metadata id="CorelCorpID_0Corel-Layer"/>
  <g id="_2455909879424">
   <polygon class="fil0" points="5843.45,1104.97 6079.96,1104.97 6079.96,891.9 5257.76,438.97 5257.77,1528.89 5843.45,1528.89 5843.45,1812.25 5494.28,2006.37 5494.28,1758.71 5260.01,1758.71 5260.01,2393.47 6082.19,1932.74 6082.19,1303.55 5500.98,1303.55 5500.98,823.86 5847.37,1023.54 "/>
   <path class="fil0" d="M4924.75 1074.85l237.62 0 0 -640.35 -823.3 466.32 0 1043.62 818.83 445.67 0 -1086.01 -406.06 0 0 225.35 176.26 0 0 465.76 -346.48 -200.04 0 -767.17 344.82 -196.34c0,0 0,243.19 -1.69,243.19z"/>
   <path class="fil1" d="M4096.41 1537.25l132.75 0 0 449.57 979.49 554.45 979.48 -556.67 0 -450.69 130.53 0 0 505.36 -1114.47 641.45 -1101.62 -647.04c0,0 0,-496.43 -6.16,-496.43z"/>
   <path class="fil1" d="M4096.41 1289.59l132.75 0 0 -449.57 979.49 -554.45 979.48 556.67 0 450.7 130.53 0 0 -505.36 -1114.47 -641.45 -1101.62 647.04c0,0 0,496.42 -6.16,496.42z"/>
   <path class="fil2" d="M755.51 4260.92c-163.98,0 -299.63,-50.93 -406.96,-152.8 -107.34,-101.86 -161,-231.81 -161,-389.82 0,-153.05 53.41,-281.75 160.25,-386.1 106.83,-104.35 240.75,-156.52 401.75,-156.52 164.97,0 306.09,50.68 423.36,152.05l-169.94 204.23c-78.51,-65.59 -162.49,-98.39 -251.93,-98.39 -75.53,0 -138.89,27.83 -190.07,83.48 -51.18,55.65 -76.77,124.23 -76.77,205.72 0,84.47 26.59,153.79 79.75,207.96 53.17,54.16 121,81.24 203.49,81.24 67.58,0 123.23,-14.41 166.96,-43.23l0 -126.71 -205.72 0 0 -211.68 480.01 0 0 469.57c-130.19,107.33 -281.25,161 -453.18,161zm1540.66 -158.02c-107.83,105.35 -241.75,158.02 -401.75,158.02 -160.01,0 -293.43,-52.42 -400.26,-157.27 -106.84,-104.85 -160.25,-233.3 -160.25,-385.35 0,-151.06 53.91,-279.26 161.74,-384.61 107.83,-105.34 241.75,-158.01 401.75,-158.01 160,0 293.42,52.42 400.26,157.27 106.83,104.84 160.25,233.29 160.25,385.35 0,151.06 -53.91,279.26 -161.74,384.6zm-398.77 -102.86c78.51,0 142.36,-27.33 191.56,-81.99 49.19,-54.66 73.79,-121.24 73.79,-199.75 0,-77.52 -25.34,-143.86 -76.03,-199.01 -50.68,-55.16 -114.78,-82.74 -192.3,-82.74 -77.52,0 -140.87,27.33 -190.07,81.99 -49.19,54.66 -73.79,121.25 -73.79,199.76 0,77.52 25.09,143.85 75.28,199.01 50.19,55.16 114.04,82.73 191.56,82.73zm983.88 247.46l-423.37 -1050.95 323.49 0 237.03 660.38 237.02 -660.38 317.52 0 -423.36 1050.95 -268.33 0zm560.51 -7.45l444.24 -1050.96 278.76 0 444.24 1050.96 -310.07 0 -76.03 -186.34 -402.49 0 -74.54 186.34 -304.11 0zm463.62 -411.44l234.04 0 -116.27 -296.65 -117.77 296.65zm804.98 411.44l0 -1043.5 493.43 0c152.06,0 265.35,37.26 339.89,111.8 61.61,61.62 92.42,144.1 92.42,247.46 0,153.05 -71.55,259.88 -214.66,320.5l248.95 363.74 -333.92 0 -210.19 -316.03 -126.72 0 0 316.03 -289.2 0zm289.2 -542.62l190.82 0c48.69,0 86.71,-11.18 114.04,-33.54 27.33,-22.36 40.99,-53.42 40.99,-93.17 0,-40.75 -13.66,-71.56 -40.99,-92.43 -27.33,-20.87 -65.84,-31.3 -115.53,-31.3l-189.33 0 0 250.44zm782.63 542.62l0 -1043.5 402.5 0c182.86,0 326.72,47.7 431.56,143.11 104.85,95.4 157.27,220.62 157.27,375.66 0,154.04 -53.17,280 -159.5,377.89 -106.34,97.89 -251.44,146.84 -435.29,146.84l-396.54 0zm289.2 -256.4l117.77 0c87.46,0 157.27,-23.36 209.45,-70.07 52.17,-46.71 78.26,-112.3 78.26,-196.77 0,-82.49 -26.09,-147.58 -78.26,-195.29 -52.18,-47.7 -121.99,-71.55 -209.45,-71.55l-117.77 0 0 533.68zm851.2 256.4l0 -1043.5 289.2 0 0 390.56 371.19 0 0 -390.56 289.2 0 0 1043.5 -289.2 0 0 -396.53 -371.19 0 0 396.53 -289.2 0zm1050.96 0l444.24 -1050.96 278.76 0 444.24 1050.96 -310.07 0 -76.03 -186.34 -402.49 0 -74.54 186.34 -304.11 0zm463.62 -411.44l234.04 0 -116.27 -296.65 -117.77 296.65zm804.98 411.44l0 -1043.5 269.82 0 429.33 551.56 0 -551.56 286.22 0 0 1043.5 -253.42 0 -445.73 -572.44 0 572.44 -286.22 0z"/>
   <path class="fil3" d="M2368.41 5092c0,28.12 -5.21,52.59 -15.61,73.83 -10.55,21.1 -24.62,38.67 -42.48,52.88 -18,14.06 -38.81,24.75 -62.72,31.92 -23.91,7.18 -49.5,10.69 -76.79,10.69 -18.42,0 -35.44,-1.54 -51.33,-4.64 -15.75,-3.09 -29.68,-6.75 -41.77,-11.11 -12.09,-4.22 -22.22,-8.72 -30.38,-13.5 -8.15,-4.78 -13.92,-9 -17.58,-12.52 -3.51,-3.65 -6.04,-8.86 -7.59,-15.61 -1.55,-6.75 -2.25,-16.31 -2.25,-28.97 0,-8.58 0.28,-15.61 0.84,-21.38 0.56,-5.76 1.41,-10.4 2.67,-14.06 1.27,-3.52 2.96,-6.05 4.93,-7.59 2.11,-1.55 4.5,-2.25 7.31,-2.25 3.8,0 9.28,2.25 16.31,6.89 7.04,4.5 16.04,9.56 27.01,15.05 10.97,5.48 24.19,10.54 39.51,15.04 15.19,4.64 32.91,6.89 53.02,6.89 13.22,0 25.04,-1.54 35.45,-4.64 10.54,-3.23 19.4,-7.59 26.72,-13.36 7.31,-5.76 12.79,-12.79 16.73,-21.23 3.8,-8.44 5.77,-17.86 5.77,-28.27 0,-12.1 -3.24,-22.5 -9.85,-31.08 -6.61,-8.72 -15.19,-16.32 -25.87,-23.07 -10.55,-6.75 -22.65,-13.08 -36.15,-18.98 -13.36,-5.91 -27.28,-12.1 -41.63,-18.71 -14.34,-6.61 -28.26,-14.06 -41.62,-22.5 -13.51,-8.3 -25.6,-18.28 -36.15,-29.95 -10.69,-11.68 -19.27,-25.46 -25.87,-41.49 -6.61,-15.89 -9.85,-35.02 -9.85,-57.24 0,-25.46 4.78,-47.96 14.2,-67.37 9.43,-19.26 22.23,-35.3 38.26,-48.09 16.17,-12.8 35.02,-22.36 56.82,-28.69 21.79,-6.33 45,-9.43 69.47,-9.43 12.52,0 25.17,0.99 37.83,2.96 12.66,1.83 24.47,4.5 35.44,7.73 10.97,3.38 20.67,7.03 29.25,11.11 8.44,4.22 14.07,7.6 16.88,10.41 2.67,2.67 4.5,5.06 5.49,6.89 0.98,1.97 1.82,4.5 2.53,7.74 0.7,3.09 1.12,7.03 1.4,11.95 0.28,4.78 0.42,10.69 0.42,17.86 0,7.88 -0.14,14.63 -0.56,20.11 -0.42,5.49 -1.12,9.99 -2.11,13.64 -0.98,3.52 -2.39,6.19 -4.08,7.74 -1.82,1.69 -4.21,2.53 -7.31,2.53 -2.95,0 -7.73,-1.97 -14.34,-5.77 -6.61,-3.79 -14.77,-8.01 -24.33,-12.65 -9.71,-4.5 -20.82,-8.58 -33.48,-12.24 -12.65,-3.8 -26.44,-5.62 -41.62,-5.62 -11.82,0 -22.08,1.4 -30.94,4.36 -8.72,2.81 -16.04,6.89 -21.94,11.95 -5.91,5.06 -10.41,11.11 -13.22,18.28 -2.96,7.17 -4.36,14.77 -4.36,22.64 0,11.82 3.23,22.08 9.7,30.66 6.47,8.72 15.19,16.46 26.02,23.21 10.83,6.61 23.2,12.94 36.99,18.84 13.64,5.91 27.7,12.24 42.05,18.71 14.34,6.61 28.41,14.06 42.05,22.5 13.78,8.44 26.01,18.42 36.84,30.1 10.69,11.67 19.41,25.31 26.02,41.2 6.61,15.75 9.85,34.32 9.85,55.7zm692.99 145.27c0,2.68 -0.85,5.21 -2.68,7.46 -1.82,2.11 -4.78,3.93 -8.86,5.34 -4.07,1.27 -9.7,2.39 -16.45,3.24 -6.89,0.84 -15.75,1.26 -26.44,1.26 -10.41,0 -19.13,-0.42 -26.16,-1.26 -7.03,-0.85 -12.66,-1.97 -16.73,-3.24 -4.08,-1.41 -7.04,-3.23 -8.86,-5.34 -1.83,-2.25 -2.68,-4.78 -2.68,-7.46l0 -503.76c0,-2.67 0.85,-5.2 2.68,-7.45 1.82,-2.11 4.78,-3.94 9.14,-5.35 4.22,-1.4 9.7,-2.39 16.59,-3.23 6.89,-0.84 15.61,-1.27 26.02,-1.27 10.69,0 19.55,0.43 26.44,1.27 6.75,0.84 12.38,1.83 16.45,3.23 4.08,1.41 7.04,3.24 8.86,5.35 1.83,2.25 2.68,4.78 2.68,7.45l0 503.76zm910.69 -30.52c0,8.16 -0.28,15.19 -0.99,20.82 -0.7,5.62 -1.82,10.27 -3.09,13.92 -1.41,3.8 -3.09,6.47 -5.2,8.02 -2.11,1.69 -4.5,2.53 -7.18,2.53l-244.28 0c-9,0 -16.6,-2.67 -22.78,-8.02 -6.19,-5.34 -9.29,-14.06 -9.29,-26.15l0 -484.36c0,-2.67 0.85,-5.2 2.68,-7.45 1.82,-2.11 4.78,-3.94 8.86,-5.35 4.07,-1.4 9.7,-2.39 16.73,-3.23 7.03,-0.84 15.75,-1.27 26.16,-1.27 10.69,0 19.55,0.43 26.44,1.27 6.75,0.84 12.38,1.83 16.45,3.23 4.08,1.41 7.04,3.24 8.86,5.35 1.83,2.25 2.68,4.78 2.68,7.45l0 429.09 167.49 0c2.68,0 5.21,0.7 7.18,2.25 2.11,1.54 3.79,3.93 5.2,7.45 1.41,3.37 2.39,7.87 3.09,13.64 0.71,5.63 0.99,12.52 0.99,20.81zm674.57 30.52c0,2.68 -0.85,5.21 -2.68,7.46 -1.82,2.11 -4.78,3.93 -8.86,5.34 -4.07,1.27 -9.7,2.39 -16.45,3.24 -6.89,0.84 -15.75,1.26 -26.44,1.26 -10.41,0 -19.13,-0.42 -26.16,-1.26 -7.03,-0.85 -12.66,-1.97 -16.73,-3.24 -4.08,-1.41 -7.04,-3.23 -8.86,-5.34 -1.83,-2.25 -2.68,-4.78 -2.68,-7.46l0 -503.76c0,-2.67 0.85,-5.2 2.68,-7.45 1.82,-2.11 4.78,-3.94 9.14,-5.35 4.22,-1.4 9.7,-2.39 16.59,-3.23 6.89,-0.84 15.61,-1.27 26.02,-1.27 10.69,0 19.55,0.43 26.44,1.27 6.75,0.84 12.38,1.83 16.45,3.23 4.08,1.41 7.04,3.24 8.86,5.35 1.83,2.25 2.68,4.78 2.68,7.45l0 503.76zm986.63 -65.81c0,6.89 -0.14,12.79 -0.56,17.57 -0.42,4.79 -1.12,9.01 -1.97,12.38 -0.7,3.52 -1.83,6.47 -3.23,9 -1.41,2.39 -3.52,5.21 -6.61,8.3 -2.96,3.09 -8.86,7.17 -17.44,12.09 -8.72,4.79 -19.27,9.57 -31.79,14.07 -12.51,4.36 -26.72,8.15 -42.75,11.11 -16.03,2.95 -33.47,4.5 -52.18,4.5 -36.42,0 -69.33,-5.63 -98.72,-16.88 -29.4,-11.25 -54.43,-28.13 -74.96,-50.49 -20.68,-22.36 -36.43,-50.2 -47.4,-83.82 -10.97,-33.47 -16.45,-72.42 -16.45,-116.87 0,-45.28 6.05,-85.5 18.14,-120.66 12.1,-35.16 28.97,-64.69 50.63,-88.6 21.66,-23.91 47.68,-41.91 78.05,-54.29 30.24,-12.37 63.71,-18.56 100.28,-18.56 14.76,0 28.97,1.26 42.75,3.79 13.78,2.4 26.44,5.63 38.11,9.71 11.68,3.94 22.08,8.58 31.51,13.78 9.28,5.35 15.89,9.85 19.54,13.5 3.66,3.8 6.19,6.89 7.6,9.28 1.41,2.54 2.53,5.63 3.23,9.43 0.85,3.93 1.55,8.44 1.97,13.64 0.42,5.2 0.57,11.53 0.57,19.27 0,8.15 -0.29,15.18 -0.85,20.95 -0.56,5.77 -1.55,10.41 -2.81,13.92 -1.41,3.52 -3.1,6.19 -4.92,7.74 -1.97,1.69 -4.22,2.53 -6.61,2.53 -4.08,0 -9.29,-2.39 -15.61,-7.17 -6.33,-4.78 -14.49,-10.13 -24.47,-16.03 -9.99,-5.91 -21.94,-11.26 -35.87,-16.04 -13.78,-4.78 -30.23,-7.17 -49.5,-7.17 -21.1,0 -39.94,4.36 -56.54,12.94 -16.59,8.72 -30.66,20.95 -42.33,36.99 -11.67,16.17 -20.53,35.58 -26.58,58.36 -6.05,22.64 -9,48.38 -9,76.93 0,31.22 3.23,58.36 9.7,81.29 6.47,22.78 15.61,41.77 27.57,56.53 11.81,14.77 26.3,25.88 43.17,33.05 16.88,7.32 35.87,10.97 56.96,10.97 19.13,0 35.72,-2.25 49.79,-6.75 13.92,-4.5 25.87,-9.56 35.86,-14.91 10.13,-5.48 18.28,-10.4 24.75,-14.76 6.47,-4.36 11.39,-6.61 15.05,-6.61 2.67,0 4.92,0.56 6.47,1.68 1.69,1.13 3.09,3.24 4.22,6.61 0.98,3.24 1.83,7.88 2.39,13.79 0.56,6.04 0.84,13.92 0.84,23.91zm1016.31 40.22c3.24,9.84 5.34,17.72 6.19,23.48 0.84,5.77 -0.28,10.13 -3.24,13.08 -3.09,2.82 -8.43,4.64 -16.17,5.35 -7.59,0.7 -18.28,0.98 -31.64,0.98 -14.07,0 -25.04,-0.14 -32.77,-0.56 -7.88,-0.42 -13.78,-1.27 -18,-2.53 -4.08,-1.27 -6.89,-2.96 -8.58,-5.21 -1.69,-2.11 -3.1,-5.06 -4.08,-8.57l-35.02 -107.17 -201.11 0 -33.61 104.21c-1.13,3.94 -2.53,7.17 -4.36,9.71 -1.69,2.67 -4.64,4.64 -8.58,6.18 -3.94,1.55 -9.56,2.54 -16.88,3.1 -7.31,0.56 -16.87,0.84 -28.69,0.84 -12.65,0 -22.5,-0.42 -29.67,-1.26 -7.17,-0.85 -12.09,-2.82 -14.77,-5.91 -2.81,-3.24 -3.79,-7.74 -2.95,-13.5 0.84,-5.77 2.95,-13.36 6.19,-23.07l164.26 -473.24c1.55,-4.64 3.52,-8.44 5.77,-11.25 2.11,-2.95 5.62,-5.06 10.4,-6.61 4.93,-1.55 11.54,-2.53 20.12,-2.95 8.43,-0.43 19.68,-0.57 33.75,-0.57 16.17,0 29.11,0.14 38.67,0.57 9.71,0.42 17.16,1.4 22.51,2.95 5.34,1.55 9.14,3.8 11.53,6.75 2.25,3.09 4.36,7.17 5.9,12.38l164.83 472.82zm-244.71 -391.54l-0.42 0 -74.26 226.85 149.64 0 -74.96 -226.85zm1109.56 -56.95c0,8.01 -0.28,14.76 -0.99,20.53 -0.7,5.63 -1.68,10.13 -3.09,13.5 -1.41,3.52 -3.09,6.05 -5.2,7.6 -1.97,1.68 -4.36,2.53 -6.75,2.53l-133.33 0 0 429.92c0,2.68 -0.84,5.21 -2.67,7.46 -1.83,2.11 -4.78,3.93 -8.86,5.34 -4.08,1.27 -9.7,2.39 -16.74,3.24 -7.03,0.84 -15.75,1.26 -26.15,1.26 -10.41,0 -19.13,-0.42 -26.16,-1.26 -7.03,-0.85 -12.66,-1.97 -16.74,-3.24 -4.08,-1.41 -7.03,-3.23 -8.86,-5.34 -1.83,-2.25 -2.67,-4.78 -2.67,-7.46l0 -429.92 -133.32 0c-2.68,0 -5.07,-0.85 -7.04,-2.53 -1.82,-1.55 -3.51,-4.08 -4.92,-7.6 -1.26,-3.37 -2.39,-7.87 -3.09,-13.5 -0.71,-5.77 -0.99,-12.52 -0.99,-20.53 0,-8.16 0.28,-15.19 0.99,-20.96 0.7,-5.76 1.83,-10.41 3.09,-13.78 1.41,-3.52 3.1,-5.91 4.92,-7.45 1.97,-1.55 4.36,-2.25 7.04,-2.25l375.5 0c2.39,0 4.64,0.7 6.75,2.25 2.11,1.54 3.79,3.93 5.2,7.45 1.41,3.37 2.39,8.02 3.09,13.78 0.71,5.77 0.99,12.8 0.99,20.96zm880.73 446.24c0,8.01 -0.28,14.62 -0.98,20.11 -0.71,5.34 -1.69,9.7 -3.1,12.94 -1.4,3.37 -3.09,5.76 -5.2,7.31 -1.97,1.55 -4.36,2.25 -6.75,2.25l-267.49 0c-9,0 -16.6,-2.67 -22.78,-8.02 -6.19,-5.34 -9.29,-14.06 -9.29,-26.15l0 -464.95c0,-12.09 3.1,-20.81 9.29,-26.16 6.18,-5.34 13.78,-8.01 22.78,-8.01l266.22 0c2.39,0 4.64,0.7 6.61,2.11 1.83,1.4 3.52,3.79 4.93,7.17 1.26,3.51 2.39,7.87 3.09,13.22 0.7,5.48 0.98,12.23 0.98,20.53 0,7.74 -0.28,14.2 -0.98,19.69 -0.7,5.34 -1.69,9.7 -3.09,12.94 -1.41,3.37 -3.1,5.76 -4.93,7.31 -1.97,1.55 -4.22,2.25 -6.61,2.25l-190.28 0 0 129.95 160.33 0c2.53,0 4.78,0.7 6.75,2.25 2.11,1.55 3.8,3.8 5.2,7.03 1.41,3.1 2.39,7.31 3.1,12.8 0.7,5.34 0.98,11.81 0.98,19.41 0,8.01 -0.28,14.62 -0.98,19.83 -0.71,5.2 -1.69,9.42 -3.1,12.51 -1.4,3.24 -3.09,5.49 -5.2,6.75 -1.97,1.41 -4.22,2.11 -6.75,2.11l-160.33 0 0 150.2 191.55 0c2.53,0 4.78,0.71 6.75,2.25 2.11,1.55 3.8,3.94 5.2,7.32 1.41,3.23 2.39,7.59 3.1,12.94 0.7,5.48 0.98,12.09 0.98,20.11z"/>
  </g>
 </g>
</svg>
