<?xml version="1.0" encoding="UTF-8"?>
<!DOCTYPE svg PUBLIC "-//W3C//DTD SVG 1.1//EN" "http://www.w3.org/Graphics/SVG/1.1/DTD/svg11.dtd">
<!-- Creator: CorelDRAW (Evaluation Version) -->
<svg xmlns="http://www.w3.org/2000/svg" xml:space="preserve" width="22.222mm" height="25.346mm" version="1.1" style="shape-rendering:geometricPrecision; text-rendering:geometricPrecision; image-rendering:optimizeQuality; fill-rule:evenodd; clip-rule:evenodd"
viewBox="0 0 2222.2 2534.6"
 xmlns:xlink="http://www.w3.org/1999/xlink"
 xmlns:xodm="http://www.corel.com/coreldraw/odm/2003">
 <defs>
  <style type="text/css">
   <![CDATA[
    .fil0 {fill:#2B2A29}
    .fil1 {fill:#3755A0}
   ]]>
  </style>
 </defs>
 <g id="Layer_x0020_1">
  <metadata id="CorelCorpID_0Corel-Layer"/>
  <g id="_2455916369456">
   <polygon class="fil0" points="1776.48,990.6 2012.99,990.6 2012.99,777.53 1190.79,324.6 1190.8,1414.52 1776.48,1414.52 1776.48,1697.88 1427.31,1892 1427.31,1644.34 1193.04,1644.34 1193.04,2279.1 2015.22,1818.37 2015.22,1189.18 1434.01,1189.18 1434.01,709.49 1780.4,909.17 "/>
   <path class="fil0" d="M857.78 960.48l237.62 0 0 -640.35 -823.3 466.32 0 1043.62 818.83 445.67 0 -1086.01 -406.06 0 0 225.35 176.26 0 0 465.76 -346.48 -200.04 0 -767.17 344.82 -196.34c0,0 0,243.19 -1.69,243.19z"/>
   <path class="fil1" d="M29.44 1422.88l132.75 0 0 449.57 979.49 554.45 979.48 -556.67 0 -450.69 130.53 0 0 505.36 -1114.47 641.45 -1101.62 -647.04c0,0 0,-496.43 -6.16,-496.43z"/>
   <path class="fil1" d="M29.44 1175.22l132.75 0 0 -449.57 979.49 -554.45 979.48 556.67 0 450.7 130.53 0 0 -505.36 -1114.47 -641.45 -1101.62 647.04c0,0 0,496.42 -6.16,496.42z"/>
  </g>
 </g>
</svg>
